# xmcd CD database file
#
# Track frame offsets:
#	150
#	21868
#	39111
#	66126
#	79896
#	107106
#	122898
#	141791
#	149157
#	162181
#	189643
#	215742
#	228755
#
# Disc length: 3385 seconds
#
# Revision: 1
# Processed by: cddbd v1.4PL0 Copyright (c) Steve Scherf et al.
# Submitted via: CDex 1.50Beta7
#
DISCID=bb0d370d
DTITLE=Vitold Rek´s Kapela Resoviana - The Polish Folk Explosion
DYEAR=2002
DGENRE=Jazz
TTITLE0=Basetla Resoviana
TTITLE1=Tell Me, My Boy - Duo
TTITLE2=In The Old Town
TTITLE3=I Love You
TTITLE4=Tel Me, My Boy
TTITLE5=Oy-Ra-da
TTITLE6=The Whole Step dance
TTITLE7=Polka Galopka Grodziska
TTITLE8=Lo.Bo.Ga.
TTITLE9=Poor Lover
TTITLE10=Awakening
TTITLE11=At the Landlady´s
TTITLE12=Fellow
EXTD=YEAR: 2002
EXTT0=
EXTT1=
EXTT2=
EXTT3=
EXTT4=
EXTT5=
EXTT6=
EXTT7=
EXTT8=
EXTT9=
EXTT10=
EXTT11=
EXTT12=
PLAYORDER=
